<svg xmlns="http://www.w3.org/2000/svg" direction="ltr" width="180.60703124999998" height="166.84000000000003" viewBox="388.8046875 405.82046875000003 180.60703124999998 166.84000000000003" stroke-linecap="round" stroke-linejoin="round" style="background-color: rgb(249, 250, 251);" encoding="UTF-8&quot;"><defs/><g transform="matrix(1, 0, 0, 1, 420.8047, 451.3555)" opacity="1"><path d="M2.702,3.0791 Q2.5576,6.1582 2.4476,9.5065 T2.2555,16.3549 2.1125,23.695 2.007,31.0684 1.9296,37.7427 1.873,44.0285 1.8619,49.2653 1.9962,53.4388 2.4263,57.4112 2.9737,60.9084 3.7228,64.8585 4.7201,68.908 5.4534,71.21 5.7395,72.1413 5.738,72.8113 5.5761,73.4614 5.2634,74.0539 4.818,74.5544 4.2657,74.9337 3.6388,75.1698 2.9735,75.249 2.3086,75.1667 1.6828,74.9276 1.1323,74.5458 0.6892,74.0432 0.3793,73.4493 0.1298,71.3429 -0.0248,67.3333 0.0903,63.545 0.4467,60.3326 1.009,57.0536 1.7975,53.7377 2.7951,50.5895 3.9658,47.7283 5.2181,45.05 6.944,41.7488 9.1789,38.2862 12.136,35.9673 16.0991,35.3016 19.354,36.4996 21.8335,40.2079 23.7967,44.4656 24.9428,47.7437 26.4469,52.9327 27.9089,58.3694 28.8624,61.946 29.5946,65.9426 30.2057,69.9253 30.8202,73.0195 31.401,75.9999 32.0066,79.7989 32.5396,83.5911 32.887,85.9819 33.0006,87.3862 32.8036,88.2951 32.3267,89.0936 31.6199,89.698 30.757,90.0451 29.8285,90.0984 28.9315,89.8525 28.1601,89.3331 27.5949,88.5945 27.2951,87.7141 27.2921,86.784 27.5863,85.9017 28.1468,85.1596 28.9149,84.6352 29.8103,84.3836 30.7391,84.431 31.6041,84.7725 32.3149,85.3724 32.7968,86.1678 32.9996,87.0755 32.9019,88.0004 32.514,88.8457 31.8764,89.5229 31.0561,89.961 30.1387,90.1143 29.2205,89.9666 28.3975,89.5334 27.7559,88.8602 27.3628,88.0173 27.2354,87.564 27.1629,86.6236 27.0457,84.1272 26.8887,80.4395 26.555,76.8412 26.1011,73.8655 25.5972,70.727 24.8753,66.9718 24.0242,63.32 22.9682,59.8732 21.1412,54.7071 19.3572,49.9306 17.5712,45.8181 15.179,42.4902 12.9641,43.0132 10.8439,46.4436 8.699,50.9943 7.3297,54.9679 6.7168,57.9411 6.3164,60.8864 6.0835,64.9779 5.8431,69.6601 5.7395,72.1413 5.738,72.8113 5.5761,73.4614 5.2634,74.0539 4.818,74.5544 4.2657,74.9337 3.6388,75.1698 2.9735,75.249 2.3086,75.1667 1.6828,74.9276 1.1323,74.5458 0.6892,74.0432 0.3793,73.4493 0.237,73.021 0.0223,71.3589 -0.4204,67.7669 -0.7885,64.3324 -0.991,61.4027 -1.353,57.8006 -1.7519,53.5469 -1.8619,49.2655 -1.873,44.0285 -1.9296,37.7427 -2.007,31.0684 -2.1125,23.695 -2.2555,16.3549 -2.4476,9.5065 -2.702,3.0791 -2.7381,-0.5447 -2.3212,-1.5511 -1.5509,-2.3213 -0.5445,-2.7381 0.5448,-2.7381 1.5512,-2.3211 2.3214,-1.5508 2.7381,-0.5444 2.8464,0.0001 2.702,3.0791 Z" fill="#1d1d1d" stroke-linecap="round"/></g><g transform="matrix(1, 0, 0, 1, 462.6406, 439.0234)" opacity="1"><path d="M2.823,1.8217 Q2.7633,3.6434 2.7442,5.2777 T2.701,8.6088 2.6521,12.0394 2.6053,15.5231 2.5641,19.034 2.5286,22.5645 2.408,26.9545 2.2258,32.4309 2.0993,37.4957 2.0061,42.1118 1.9536,46.6452 1.9339,50.9283 1.9854,54.7568 2.122,57.8306 2.2551,60.6362 2.4336,64.22 2.6506,67.7925 2.8541,70.9573 2.8821,73.2025 2.5803,74.098 2.0084,74.8504 1.2262,75.3807 0.3156,75.6334 -0.628,75.5822 -1.5059,75.2324 -2.2261,74.6205 -2.7132,73.8108 -2.9163,72.8878 -2.814,71.9484 -2.4171,71.0907 -1.7671,70.4047 -0.9321,69.9622 0.0004,69.8095 0.933,69.9625 1.7678,70.4053 2.4176,71.0915 2.8142,71.9492 2.9162,72.8887 2.7129,73.8116 2.2255,74.6212 1.5051,75.2328 0.6271,75.5824 -0.3165,75.6333 -1.227,75.3803 -2.009,74.8498 -2.5807,74.0973 -2.8822,73.2016 -2.9595,72.7296 -2.8541,70.9573 -2.6506,67.7925 -2.4336,64.22 -2.2551,60.6362 -2.122,57.8306 -1.9854,54.7568 -1.9339,50.9283 -1.9536,46.6452 -2.0061,42.1118 -2.0993,37.4957 -2.2258,32.4309 -2.408,26.9545 -2.5286,22.5645 -2.5641,19.034 -2.6053,15.5231 -2.6521,12.0394 -2.701,8.6088 -2.7442,5.2777 -2.823,1.8217 -2.773,-0.5516 -2.3508,-1.5708 -1.5707,-2.3509 -0.5515,-2.773 0.5517,-2.773 1.571,-2.3507 2.351,-1.5706 2.7731,-0.5513 2.8827,0.0001 2.823,1.8217 Z" fill="#1d1d1d" stroke-linecap="round"/></g><g transform="matrix(1, 0, 0, 1, 437.4922, 480.6563)" opacity="1"><path d="M1.4019,-3.4296 Q3.8838,-4.3612 5.8699,-5.1773 T10.5453,-6.6934 16.1081,-8.1069 21.4005,-9.3272 25.6578,-10.1865 30.1395,-10.9564 34.3111,-11.5243 36.2264,-11.6409 36.9694,-11.4514 37.6131,-11.0345 38.0899,-10.434 38.35,-9.7126 38.3662,-8.946 38.1367,-8.2143 37.6856,-7.5942 37.0601,-7.1506 36.3257,-6.9299 35.5593,-6.9553 34.8411,-7.2241 34.2464,-7.7082 33.8373,-8.3568 33.6568,-9.1021 33.7237,-9.866 34.031,-10.5685 34.5466,-11.1362 35.2164,-11.5095 35.9704,-11.6493 36.7296,-11.5412 37.4144,-11.1962 37.9533,-10.6506 38.2897,-9.9616 38.3886,-9.2011 38.2394,-8.4489 37.8578,-7.7838 37.2839,-7.2753 36.5776,-6.9767 36.2003,-6.8853 34.6671,-6.8047 30.6501,-6.6245 26.4241,-6.2794 22.3595,-5.4643 17.2254,-4.0791 12.0846,-2.5309 7.7968,-0.8202 3.4589,1.328 0.5609,2.6095 -0.4804,2.6255 -1.4486,2.2418 -2.1962,1.5167 -2.6095,0.5608 -2.6255,-0.4806 -2.2417,-1.4487 -1.5166,-2.1963 -1.0799,-2.498 1.4019,-3.4296 Z" fill="#1d1d1d" stroke-linecap="round"/></g><g transform="matrix(1, 0, 0, 1, 497.8594, 479.9922)" opacity="1"><path d="M2.7071,2.0505 Q2.6127,4.101 2.5624,6.0313 T2.4079,10.4316 2.2258,15.6738 2.0905,21.6237 1.9908,27.1915 1.9177,32.0872 1.8643,36.9603 1.8806,41.2656 1.9797,44.9042 2.1953,48.9523 2.471,52.8059 2.8812,56.1377 3.1492,58.4235 2.9595,59.3135 2.4955,60.0964 1.8059,60.6901 0.9628,61.0325 0.0544,61.0878 -0.824,60.8502 -1.5806,60.3445 -2.136,59.6237 -2.4323,58.7632 -2.4382,57.8532 -2.1533,56.989 -1.6074,56.2609 -0.8575,55.7453 0.0177,55.4962 0.9267,55.5395 1.7742,55.8708 2.4716,56.4554 2.9458,57.2321 3.1472,58.1196 3.0547,59.0249 2.6779,59.8532 2.0564,60.5179 1.2551,60.9493 0.3581,61.1023 -0.5409,60.9608 -1.3476,60.5397 -1.9776,59.8831 -2.365,59.0597 -2.4911,58.6166 -2.5412,56.4647 -2.471,52.8059 -2.1953,48.9523 -1.9797,44.9042 -1.8806,41.2656 -1.8643,36.9603 -1.9177,32.0872 -1.9908,27.1915 -2.0905,21.6237 -2.2258,15.6738 -2.4079,10.4316 -2.5624,6.0313 -2.7071,2.0505 -2.6949,-0.5361 -2.2846,-1.5266 -1.5265,-2.2846 -0.5359,-2.6949 0.5362,-2.6948 1.5267,-2.2845 2.2847,-1.5263 2.6949,-0.5358 2.8015,0.0001 2.7071,2.0505 Z" fill="#1d1d1d" stroke-linecap="round"/></g><g transform="matrix(1, 0, 0, 1, 481.8438, 507.4258)" opacity="1"><path d="M0.6738,-3.1401 Q2.2772,-3.6866 3.9586,-4.0527 T7.4009,-4.603 11.2512,-4.9274 15.7486,-5.0984 20.9371,-5.1251 25.8738,-5.1255 29.7014,-5.2 32.7786,-5.3447 36.9454,-5.5241 40.1009,-5.5662 40.8493,-5.3186 41.4794,-4.845 41.9254,-4.195 42.1404,-3.4366 42.102,-2.6493 41.8143,-1.9154 41.3072,-1.3118 40.634,-0.9018 39.865,-0.7281 39.0809,-0.8091 38.3637,-1.1363 37.7885,-1.6753 37.4156,-2.3698 37.2839,-3.147 37.4072,-3.9255 37.7727,-4.6239 38.3421,-5.1691 39.0558,-5.5039 39.839,-5.5933 40.6097,-5.4279 41.2873,-5.0251 41.8008,-4.427 42.0964,-3.6962 42.1432,-2.9093 41.9363,-2.1487 41.4974,-1.4939 40.8723,-1.0136 40.1266,-0.758 39.7332,-0.6913 36.9788,-0.7656 32.8268,-0.8904 29.7676,-0.9671 25.9667,-0.9192 21.1169,-0.6996 16.146,-0.3303 11.8119,0.2113 6.9161,0.966 2.5119,1.9982 0.398,2.6727 -0.6552,2.6215 -1.6085,2.1712 -2.317,1.3904 -2.6727,0.3978 -2.6215,-0.6553 -2.1712,-1.6086 -1.3903,-2.3171 -0.9295,-2.5936 0.6738,-3.1401 Z" fill="#1d1d1d" stroke-linecap="round"/></g><g transform="matrix(1, 0, 0, 1, 522.2617, 470.7305)" opacity="1"><path d="M2.7684,1.4618 Q2.7703,2.9236 2.7547,4.5267 T2.6869,7.9938 2.5239,12.0709 2.3691,16.3047 2.3962,20.3588 2.5945,24.7128 3.0173,29.2431 3.7282,33.8715 4.4971,38.6497 5.4413,43.5018 6.5866,48.1968 7.7059,52.2192 8.815,55.4887 9.8932,58.3744 11.1424,61.9074 12.5683,65.5175 11.7406,67.1255 9.4451,65.428 8.2782,61.1978 7.5234,57.2595 6.7853,54.1241 5.9686,50.7816 5.1085,47.1147 4.1315,43.1445 2.9598,39.0197 1.6339,34.9619 0.3041,31.4711 -0.9267,28.2249 -2.0771,24.7909 -3.2501,21.3615 -4.4401,17.4237 -5.4677,13.138 -6.3067,9.1689 -6.965,4.5261 -7.3824,-1.4833 -7.5938,-7.3769 -7.7735,-11.7623 -7.9574,-15.3399 -8.1006,-18.7537 -8.0428,-21.9091 -7.5411,-24.8878 -6.458,-28.3606 -4.8301,-31.7975 -2.343,-34.313 0.8901,-35.702 4.9479,-34.8864 8.9829,-31.7589 11.4115,-28.2322 12.752,-25.3787 13.7871,-22.6816 14.7328,-19.9724 15.8936,-16.1065 17.1002,-11.737 17.8858,-8.2987 18.288,-4.8669 17.257,-0.6204 14.0887,3.3551 9.8557,6.1284 5.4133,8.227 1.0507,9.83 -3.0385,11.1086 -5.5069,11.7757 -6.5469,11.7472 -7.5232,11.3882 -8.3338,10.7362 -8.8938,9.8594 -9.1445,8.8498 -9.0597,7.8129 -8.6483,6.8575 -7.9533,6.0834 -7.0475,5.5717 -6.0257,5.3761 -4.995,5.517 -4.0632,5.9796 -3.328,6.7155 -2.8662,7.6477 -2.7262,8.6785 -2.9227,9.7001 -3.4351,10.6055 -4.2098,11.2998 -5.1657,11.7104 -6.2026,11.7943 -7.212,11.5427 -8.0882,10.982 -8.7396,10.1708 -9.0978,9.1941 -9.1254,8.1542 -8.8194,7.1599 -8.212,6.3153 -7.3668,5.7089 -6.8949,5.4751 -5.7894,5.1263 -2.8599,4.2633 0.8802,2.9988 4.7387,1.3687 8.2361,-0.5607 10.8048,-3.3108 11.695,-6.6813 11.1355,-10.2273 10.0926,-14.3411 9.0008,-17.8902 7.6117,-21.4756 5.4814,-25.6816 2.9043,-28.6781 0.3018,-28.9605 -1.7479,-26.5324 -3.1755,-22.6506 -3.8413,-18.8089 -3.8902,-15.4364 -3.9041,-11.8948 -3.7781,-7.5546 -3.4393,-1.8316 -2.8666,3.8769 -2.1509,8.2876 -1.3409,12.0716 -0.2246,16.0452 1.0923,19.8863 2.2718,23.3713 3.324,26.6875 4.4259,29.8957 5.7906,33.4626 7.4028,37.5562 8.9757,41.7436 10.3071,45.7037 11.4104,49.2875 12.432,52.6369 13.3707,55.8588 14.1515,58.9102 14.7831,63.0958 14.9834,67.3448 14.071,70.5207 11.1672,71.5943 8.5154,69.7003 7.5707,66.9366 6.7478,63.3281 5.8872,59.6659 5.0547,56.6271 4.1487,53.1849 3.0729,49.0789 1.827,44.2314 0.771,39.2993 -0.1247,34.5298 -1.0341,29.7243 -1.7123,25.0176 -2.1519,20.4885 -2.3691,16.3049 -2.5239,12.0709 -2.6869,7.9938 -2.7547,4.5267 -2.7684,1.4618 -2.6613,-0.5294 -2.2561,-1.5076 -1.5075,-2.2562 -0.5293,-2.6614 0.5295,-2.6613 1.5077,-2.2561 2.2563,-1.5073 2.6614,-0.5291 2.7666,0.0001 2.7684,1.4618 Z" fill="#1d1d1d" stroke-linecap="round"/></g></svg>